<svg xmlns="http://www.w3.org/2000/svg" xmlns:xlink="http://www.w3.org/1999/xlink" style="isolation:isolate" viewBox="0 0 27 25" width="27" height="25"><defs><clipPath id="_clipPath_2Td1Q1JHGz9p77qQGDpQ1tZlX7qNwKUv"><rect width="27" height="25"/></clipPath></defs><g clip-path="url(#_clipPath_2Td1Q1JHGz9p77qQGDpQ1tZlX7qNwKUv)"><g><g><g><g><path d=" M 26.658 3.257 C 26.39 2.953 26.004 2.778 25.597 2.778 L 6.215 2.778 L 5.941 1.161 C 5.829 0.492 5.244 0 4.558 0 L 1.403 0 C 0.627 0 0 0.621 0 1.389 C 0 2.157 0.627 2.778 1.403 2.778 L 3.37 2.778 L 5.979 18.283 C 5.99 18.346 6.023 18.397 6.042 18.456 C 6.065 18.529 6.083 18.599 6.118 18.665 C 6.163 18.757 6.223 18.835 6.286 18.914 C 6.33 18.968 6.369 19.022 6.42 19.069 C 6.501 19.144 6.595 19.197 6.69 19.25 C 6.744 19.279 6.79 19.318 6.847 19.34 C 7.01 19.406 7.181 19.444 7.362 19.444 C 7.364 19.444 22.792 19.444 22.792 19.444 C 23.568 19.444 24.195 18.824 24.195 18.056 C 24.195 17.287 23.568 16.667 22.792 16.667 L 8.552 16.667 L 8.319 15.278 L 24.195 15.278 C 24.893 15.278 25.485 14.769 25.583 14.086 L 26.986 4.364 C 27.043 3.964 26.923 3.56 26.658 3.257 Z  M 23.98 5.556 L 23.58 8.333 L 18.584 8.333 L 18.584 5.556 L 23.98 5.556 Z  M 17.182 5.556 L 17.182 8.333 L 12.974 8.333 L 12.974 5.556 L 17.182 5.556 Z  M 17.182 9.722 L 17.182 12.5 L 12.974 12.5 L 12.974 9.722 L 17.182 9.722 Z  M 11.571 5.556 L 11.571 8.333 L 7.364 8.333 C 7.289 8.333 7.222 8.354 7.156 8.375 L 6.682 5.556 L 11.571 5.556 Z  M 7.383 9.722 L 11.571 9.722 L 11.571 12.5 L 7.85 12.5 L 7.383 9.722 Z  M 18.584 12.5 L 18.584 9.722 L 23.378 9.722 L 22.979 12.5 L 18.584 12.5 Z " fill="rgb(255,255,255)"/><ellipse vector-effect="non-scaling-stroke" cx="9.467517473282866" cy="22.916666666666664" rx="2.1038927718406364" ry="2.083333333333332" fill="rgb(255,255,255)"/><ellipse vector-effect="non-scaling-stroke" cx="22.090874104326694" cy="22.916666666666664" rx="2.1038927718406377" ry="2.083333333333332" fill="rgb(255,255,255)"/></g></g></g></g></g></svg>